<?xml version="1.0" encoding="UTF-8" standalone="no"?>
<svg
   xmlns:dc="http://purl.org/dc/elements/1.1/"
   xmlns:cc="http://creativecommons.org/ns#"
   xmlns:rdf="http://www.w3.org/1999/02/22-rdf-syntax-ns#"
   xmlns:svg="http://www.w3.org/2000/svg"
   xmlns="http://www.w3.org/2000/svg"
   viewBox="0 0 2560 1440"
   height="1440"
   width="2560"
   xml:space="preserve"
   id="svg2"
   version="1.1"><metadata
     id="metadata8"><rdf:RDF><cc:Work
         rdf:about=""><dc:format>image/svg+xml</dc:format><dc:type
           rdf:resource="http://purl.org/dc/dcmitype/StillImage" /></cc:Work></rdf:RDF></metadata><defs
     id="defs6"><pattern
       id="pattern78"
       height="460.137"
       width="422.253"
       y="0"
       x="0"
       patternUnits="userSpaceOnUse"
       patternTransform="translate(0,1080)"><g
         id="g16"
         transform="translate(61.9991,92.2779)"><path
           id="path14"
           style="fill:#fffef9;fill-opacity:1;fill-rule:nonzero;stroke:none"
           d="m 0,0 0,0 c -0.629,3.788 -4.209,6.348 -7.997,5.719 l -10.865,-1.804 5.173,-31.15 17.723,2.943 -1.139,6.858 -9.625,-1.598 -0.892,5.37 9.13,1.516 -1.139,6.858 -9.13,-1.516 -0.865,5.205 L 0,0 Z" /></g><g
         id="g20"
         transform="translate(76.0019,93.2473)"><path
           id="path18"
           style="fill:#fffef9;fill-opacity:1;fill-rule:nonzero;stroke:none"
           d="m 0,0 c -2.782,4.611 -8.095,7.059 -13.407,6.176 l 0,0 14.874,-23.59 c 2.057,-3.262 5.87,-4.973 9.674,-4.341 l 0,0 8.13,33.358 0,0 C 13.957,10.721 9.716,6.691 8.563,1.428 L 6.053,-10.035 0,0 Z" /></g><g
         id="g24"
         transform="translate(114.1764,100.4259)"><path
           id="path22"
           style="fill:#fffef9;fill-opacity:1;fill-rule:nonzero;stroke:none"
           d="m 0,0 c 2.423,0.402 4.626,-0.037 6.608,-1.317 1.981,-1.281 3.14,-2.93 3.475,-4.95 0.417,-2.511 -0.098,-4.739 -1.544,-6.681 -1.446,-1.943 -3.381,-3.115 -5.804,-3.518 -2.424,-0.402 -4.634,0.08 -6.63,1.447 -1.996,1.367 -3.202,3.303 -3.618,5.809 -0.334,2.015 0.229,3.946 1.691,5.795 C -4.36,-1.567 -2.42,-0.429 0,0 m -1.216,7.322 c -4.49,-0.745 -8.251,-2.81 -11.283,-6.193 -3.032,-3.384 -4.181,-7.283 -3.448,-11.7 0.785,-4.727 3.051,-8.318 6.799,-10.774 3.747,-2.457 8.113,-3.271 13.099,-2.443 5.012,0.832 8.887,3.015 11.626,6.549 2.739,3.533 3.716,7.663 2.931,12.39 -0.734,4.417 -3.083,7.735 -7.045,9.957 C 7.499,7.33 3.271,8.081 -1.222,7.361 l 0.006,-0.039 z" /></g><g
         id="g28"
         transform="translate(143.3822,104.5199)"><path
           id="path26"
           style="fill:#fffef9;fill-opacity:1;fill-rule:nonzero;stroke:none"
           d="m 0,0 c -0.743,4.472 -4.97,7.495 -9.442,6.752 l 5.173,-31.149 17.806,2.957 -1.139,6.858 L 2.689,-16.194 0,0 Z" /></g><g
         id="g32"
         transform="translate(160.7327,107.3188)"><path
           id="path30"
           style="fill:#fffef9;fill-opacity:1;fill-rule:nonzero;stroke:none"
           d="m 0,0 c -2.782,4.611 -8.095,7.059 -13.407,6.176 l 0,0 14.874,-23.59 c 2.057,-3.262 5.87,-4.973 9.674,-4.341 l 0,0 8.13,33.358 C 13.957,10.721 9.716,6.691 8.563,1.428 L 6.053,-10.035 0,0 Z" /></g><g
         id="g36"
         transform="translate(200.8891,115.3437)"><path
           id="path34"
           style="fill:#fffef9;fill-opacity:1;fill-rule:nonzero;stroke:none"
           d="m 0,0 0,0 c -0.629,3.787 -4.209,6.348 -7.997,5.719 l -10.865,-1.804 5.173,-31.15 17.723,2.943 -1.139,6.858 -9.625,-1.598 -0.892,5.37 9.13,1.516 -1.139,6.858 -9.13,-1.516 -0.865,5.205 L 0,0 Z" /></g><g
         id="g40"
         transform="translate(279.0421,334.3437)"><path
           id="path38"
           style="fill:#fffef9;fill-opacity:1;fill-rule:nonzero;stroke:none"
           d="m 0,0 0,0 c 0.501,3.806 -2.178,7.299 -5.984,7.8 l -10.92,1.439 -4.124,-31.306 17.811,-2.346 0.908,6.892 -9.674,1.275 0.712,5.397 9.175,-1.209 0.909,6.892 -9.176,1.209 0.689,5.232 L 0,0 Z" /></g><g
         id="g44"
         transform="translate(292.7202,331.1923)"><path
           id="path42"
           style="fill:#fffef9;fill-opacity:1;fill-rule:nonzero;stroke:none"
           d="m 0,0 c -1.318,5.221 -5.688,9.111 -11.027,9.814 l 0,0 7.358,-26.9 c 1.017,-3.72 4.166,-6.467 7.99,-6.971 L 21.815,5.487 C 16.474,6.191 11.243,3.571 8.608,-1.128 L 2.868,-11.363 0,0 Z" /></g><g
         id="g48"
         transform="translate(331.3303,326.9399)"><path
           id="path46"
           style="fill:#fffef9;fill-opacity:1;fill-rule:nonzero;stroke:none"
           d="m 0,0 c 2.435,-0.321 4.415,-1.383 5.938,-3.184 1.522,-1.803 2.15,-3.718 1.882,-5.748 -0.332,-2.524 -1.474,-4.505 -3.423,-5.942 -1.949,-1.437 -4.142,-1.995 -6.577,-1.674 -2.436,0.321 -4.41,1.426 -5.921,3.315 -1.511,1.889 -2.1,4.093 -1.769,6.611 0.267,2.024 1.369,3.708 3.306,5.051 C -4.628,-0.229 -2.439,0.295 0,0 m 0.97,7.359 c -4.512,0.595 -8.712,-0.285 -12.598,-2.638 -3.886,-2.354 -6.122,-5.75 -6.706,-10.188 -0.626,-4.751 0.495,-8.847 3.365,-12.288 2.869,-3.442 6.809,-5.492 11.819,-6.153 5.038,-0.663 9.381,0.296 13.03,2.879 3.649,2.582 5.787,6.249 6.413,10.999 0.585,4.439 -0.696,8.298 -3.839,11.578 C 9.309,4.827 5.483,6.778 0.975,7.398 L 0.97,7.359 Z" /></g><g
         id="g52"
         transform="translate(360.4621,322.3491)"><path
           id="path50"
           style="fill:#fffef9;fill-opacity:1;fill-rule:nonzero;stroke:none"
           d="m 0,0 c 0.592,4.494 -2.571,8.618 -7.066,9.21 l -4.124,-31.306 17.895,-2.357 0.908,6.892 -9.757,1.285 L 0,0 Z" /></g><g
         id="g56"
         transform="translate(377.8755,319.9727)"><path
           id="path54"
           style="fill:#fffef9;fill-opacity:1;fill-rule:nonzero;stroke:none"
           d="m 0,0 c -1.318,5.221 -5.688,9.111 -11.027,9.814 l 7.358,-26.9 c 1.017,-3.72 4.166,-6.467 7.99,-6.971 l 17.494,29.544 0,0 C 16.474,6.191 11.243,3.571 8.608,-1.128 L 2.868,-11.363 0,0 Z" /></g><g
         id="g60"
         transform="translate(418.6281,315.9525)"><path
           id="path58"
           style="fill:#fffef9;fill-opacity:1;fill-rule:nonzero;stroke:none"
           d="m 0,0 0,0 c 0.502,3.806 -2.178,7.299 -5.984,7.8 l -10.92,1.439 -4.124,-31.306 17.811,-2.346 0.909,6.892 -9.674,1.275 0.711,5.397 9.175,-1.209 0.909,6.892 -9.176,1.209 0.689,5.232 L 0,0 Z" /></g><g
         id="g64"
         transform="translate(147.5596,327.5704)"><path
           id="path62"
           style="fill:#fffef9;fill-opacity:1;fill-rule:nonzero;stroke:none"
           d="m 0,0 c -0.229,-2.225 -0.346,-4.482 -0.346,-6.767 0,-3.312 0.247,-6.569 0.721,-9.748 3.687,-24.735 21.192,-44.957 44.41,-52.562 -26.636,3.717 -47.93,24.111 -52.994,50.289 -0.753,3.891 -1.149,7.909 -1.149,12.021 0,2.859 0.192,5.673 0.56,8.43 C -5.062,29.55 16.943,51.654 44.782,55.54 20.637,47.632 2.675,26.082 0,0 M 64.214,85.724 C 21.139,80.433 -12.833,45.72 -16.98,2.302 c -0.284,-2.951 -0.428,-5.939 -0.428,-8.965 0,-4.584 0.331,-9.091 0.972,-13.497 5.614,-38.654 34.982,-69.611 72.821,-77.587 1.967,6.87 3.018,14.127 3.018,21.627 0,1.363 -0.035,2.715 -0.104,4.06 -0.045,0.878 -0.102,1.753 -0.177,2.623 -2.227,26.422 -17.554,49.118 -39.464,61.568 22.686,13.468 39.149,36.318 44.041,63.202 0.212,1.142 0.398,2.29 0.562,3.446 0.624,4.346 0.947,8.791 0.947,13.311 0,4.632 -0.338,9.184 -0.994,13.634" /></g><g
         id="g68"
         transform="translate(54.0339,383.1103)"><path
           id="path66"
           style="fill:#fffef9;fill-opacity:1;fill-rule:nonzero;stroke:none"
           d="m 0,0 c 27.84,-3.886 49.844,-25.99 53.581,-53.877 0.368,-2.757 0.559,-5.571 0.559,-8.43 0,-4.112 -0.395,-8.13 -1.148,-12.02 -5.065,-26.179 -26.358,-46.573 -52.995,-50.29 23.218,7.605 40.723,27.828 44.41,52.562 0.475,3.18 0.721,6.436 0.721,9.748 0,2.285 -0.117,4.542 -0.346,6.767 C 42.107,-29.458 24.145,-7.908 0,0 m -20.426,16.55 c 0,-4.52 0.323,-8.965 0.947,-13.311 0.164,-1.156 0.351,-2.304 0.562,-3.445 4.893,-26.885 21.356,-49.735 44.042,-63.202 -21.91,-12.451 -37.237,-35.147 -39.465,-61.569 -0.075,-0.87 -0.132,-1.745 -0.176,-2.623 -0.07,-1.345 -0.105,-2.697 -0.105,-4.06 0,-7.5 1.052,-14.757 3.018,-21.626 37.839,7.975 67.207,38.932 72.821,77.586 0.641,4.406 0.972,8.913 0.972,13.497 0,3.026 -0.144,6.014 -0.427,8.965 -4.147,43.418 -38.12,78.131 -81.195,83.422 -0.656,-4.45 -0.994,-9.002 -0.994,-13.634" /></g><g
         id="g72"
         transform="translate(357.045,97.7466)"><path
           id="path70"
           style="fill:#fffef9;fill-opacity:1;fill-rule:nonzero;stroke:none"
           d="m 0,0 c -0.229,-2.225 -0.346,-4.482 -0.346,-6.767 0,-3.312 0.247,-6.568 0.721,-9.748 3.687,-24.735 21.192,-44.957 44.41,-52.562 -26.636,3.717 -47.93,24.111 -52.994,50.289 -0.753,3.891 -1.149,7.909 -1.149,12.021 0,2.859 0.192,5.673 0.56,8.43 C -5.062,29.55 16.943,51.654 44.782,55.54 20.637,47.632 2.675,26.082 0,0 M 64.214,85.724 C 21.139,80.433 -12.833,45.72 -16.98,2.302 c -0.284,-2.951 -0.428,-5.939 -0.428,-8.965 0,-4.584 0.331,-9.091 0.972,-13.497 5.614,-38.654 34.982,-69.611 72.821,-77.587 1.967,6.87 3.018,14.127 3.018,21.627 0,1.363 -0.035,2.715 -0.104,4.06 -0.045,0.878 -0.102,1.753 -0.177,2.623 -2.227,26.422 -17.554,49.118 -39.464,61.568 22.686,13.468 39.149,36.318 44.041,63.202 0.212,1.142 0.398,2.29 0.562,3.446 0.624,4.346 0.947,8.791 0.947,13.311 0,4.632 -0.338,9.184 -0.994,13.634" /></g><g
         id="g76"
         transform="translate(263.5193,153.2865)"><path
           id="path74"
           style="fill:#fffef9;fill-opacity:1;fill-rule:nonzero;stroke:none"
           d="m 0,0 c 27.84,-3.886 49.844,-25.99 53.581,-53.877 0.368,-2.757 0.559,-5.571 0.559,-8.43 0,-4.112 -0.395,-8.13 -1.148,-12.02 -5.065,-26.179 -26.358,-46.573 -52.995,-50.29 23.218,7.605 40.723,27.828 44.41,52.562 0.475,3.18 0.721,6.436 0.721,9.748 0,2.285 -0.117,4.542 -0.346,6.767 C 42.107,-29.458 24.145,-7.908 0,0 m -20.426,16.55 c 0,-4.52 0.323,-8.965 0.947,-13.311 0.164,-1.156 0.351,-2.304 0.562,-3.445 4.893,-26.885 21.356,-49.735 44.042,-63.202 -21.91,-12.451 -37.237,-35.147 -39.465,-61.569 -0.075,-0.87 -0.132,-1.745 -0.176,-2.623 -0.07,-1.345 -0.105,-2.697 -0.105,-4.06 0,-7.5 1.052,-14.757 3.018,-21.626 37.839,7.975 67.207,38.932 72.821,77.586 0.641,4.406 0.972,8.913 0.972,13.497 0,3.026 -0.144,6.014 -0.427,8.965 -4.147,43.418 -38.12,78.131 -81.195,83.422 -0.656,-4.45 -0.994,-9.002 -0.994,-13.634" /></g></pattern></defs><g
     transform="matrix(1.3333333,0,0,-1.3333333,0,1440)"
     id="g10"><path
       id="path12"
       style="fill:#60898e;fill-opacity:1;fill-rule:nonzero;stroke:none"
       d="M 3.61,0 H 1920 V 1080 H 3.61 Z" /><path
       id="path80"
       style="fill:url(#pattern78);fill-opacity:1;fill-rule:nonzero;stroke:none"
       d="M 3.61,0 H 1920 V 1080 H 3.61 Z" /></g></svg>